<?xml version="1.0" standalone="no"?>
<!DOCTYPE svg PUBLIC "-//W3C//DTD SVG 20010904//EN"
 "http://www.w3.org/TR/2001/REC-SVG-20010904/DTD/svg10.dtd">
<svg version="1.0" xmlns="http://www.w3.org/2000/svg"
 width="491.000000pt" height="491.000000pt" viewBox="0 0 491.000000 491.000000"
 preserveAspectRatio="xMidYMid meet">
<metadata>
Created by potrace 1.14, written by Peter Selinger 2001-2017
</metadata>
<g transform="translate(0.000000,491.000000) scale(0.100000,-0.100000)"
fill="#000000" stroke="none">
<path d="M2245 4703 c-162 -15 -465 -75 -547 -108 -14 -6 -18 -2 -18 15 0 17
-4 20 -21 15 -12 -4 -27 -8 -33 -9 -6 -1 -28 -10 -50 -19 -21 -9 -42 -17 -47
-17 -22 0 -297 -147 -389 -208 -127 -85 -274 -206 -357 -295 -96 -103 -163
-256 -179 -407 l-6 -56 -123 -62 -122 -63 -36 -77 c-94 -200 -174 -471 -184
-617 -7 -106 20 -216 87 -351 l51 -102 -76 -76 c-89 -91 -88 -88 -50 -285 30
-153 79 -313 144 -465 57 -134 105 -210 174 -272 51 -46 175 -114 208 -114 43
0 45 -6 41 -110 -6 -149 -5 -153 96 -252 103 -102 104 -103 162 -148 25 -19
50 -39 57 -45 29 -24 42 -33 118 -81 44 -28 116 -71 160 -94 44 -24 83 -49 87
-54 4 -6 8 -8 8 -4 0 4 28 -6 62 -22 35 -15 102 -41 149 -58 80 -28 86 -29 82
-11 -3 10 -10 19 -16 19 -6 0 -8 2 -6 5 3 2 38 -6 79 -19 111 -35 317 -76 433
-85 295 -23 561 -10 799 38 51 10 107 22 123 25 17 3 24 3 18 0 -7 -3 -13 -12
-13 -19 0 -32 227 48 445 157 260 130 581 389 673 543 49 82 82 200 82 290 l0
62 64 33 c113 58 199 123 224 168 38 69 101 247 139 391 29 111 35 155 36 241
1 130 -16 198 -84 338 l-51 102 64 68 c94 101 95 103 74 225 -42 237 -147 543
-233 681 -54 85 -174 180 -286 226 l-52 22 3 91 c5 123 -7 157 -81 235 -148
155 -385 325 -602 432 -128 63 -313 133 -382 145 -40 6 -43 5 -43 -15 0 -16
-5 -20 -17 -16 -168 48 -329 68 -578 70 -126 1 -243 0 -260 -1z m-295 -498
c114 -7 380 -40 491 -61 115 -22 256 -65 409 -127 204 -82 250 -105 250 -128
0 -10 6 -19 14 -19 8 0 18 -5 21 -10 4 -6 -18 -1 -47 11 -153 61 -351 133
-454 164 -213 65 -676 130 -974 137 -62 1 -71 3 -32 5 36 3 52 8 52 18 0 24
20 24 270 10z m-170 -525 c100 -15 316 -70 470 -118 281 -89 878 -321 858
-333 -10 -6 -8 -12 7 -24 11 -8 -52 10 -140 41 -264 92 -702 243 -830 286
-121 40 -414 118 -446 118 -10 0 -21 5 -25 12 -4 7 -3 8 4 4 7 -4 12 -2 12 4
0 6 -10 15 -22 20 -26 11 -36 12 112 -10z m2322 -167 c25 -27 54 -64 63 -83
10 -19 14 -32 9 -27 -4 4 -36 -46 -71 -110 -47 -89 -63 -129 -64 -163 -2 -40
-3 -41 -6 -11 -3 19 -13 46 -24 59 -23 30 -25 65 -4 82 25 20 17 48 -25 91
-27 28 -45 39 -56 35 -11 -4 -14 -12 -9 -24 5 -9 10 -33 12 -52 7 -64 13 -78
33 -83 16 -4 18 -10 12 -28 -5 -12 -5 -45 0 -72 5 -28 7 -61 4 -73 -6 -22 -11
-24 -69 -23 -61 0 -163 16 -120 18 26 1 23 19 -12 66 -28 38 -39 72 -25 80 5
3 10 26 10 51 0 42 1 44 30 44 37 0 49 21 51 93 2 47 6 57 25 65 17 8 24 8 28
-4 9 -24 37 -17 34 10 -2 18 9 32 52 65 30 22 59 41 65 41 6 0 31 -21 57 -47z
m-512 -327 c0 -25 5 -48 12 -52 10 -7 32 14 41 40 5 15 47 -22 47 -42 0 -8 17
-30 37 -50 l37 -34 -34 7 c-70 15 -205 56 -217 67 -19 15 -16 28 7 28 13 0 20
7 20 20 0 11 5 20 10 20 6 0 10 9 10 20 0 11 7 20 15 20 11 0 15 -12 15 -44z
m-1655 -222 c233 -58 402 -109 798 -240 322 -107 377 -128 377 -145 0 -11 7
-19 17 -19 9 0 14 -3 10 -6 -7 -8 -187 44 -592 171 -440 138 -571 177 -755
225 -85 22 -143 38 -127 36 19 -2 27 1 27 12 0 20 65 11 245 -34z m-322 29
c-7 -2 -19 -2 -25 0 -7 3 -2 5 12 5 14 0 19 -2 13 -5z m-457 -110 c-3 -7 3
-17 13 -23 20 -10 31 3 31 41 0 10 7 19 15 19 17 0 21 -40 6 -55 -5 -6 -12
-28 -15 -49 -9 -56 -23 -69 -68 -63 -25 3 -41 0 -49 -9 -13 -16 -45 -10 -101
17 -43 22 -97 25 -99 7 -1 -7 0 -25 1 -40 1 -14 -3 -29 -9 -33 -11 -6 -61 40
-61 56 0 4 -16 13 -36 19 -30 10 -35 16 -32 38 2 22 15 33 62 56 33 15 78 29
100 30 23 0 44 5 47 10 4 4 26 10 51 13 32 4 47 1 57 -11 20 -24 51 -21 51 6
0 21 0 21 20 3 12 -10 18 -25 16 -32z m455 -153 c5 0 9 -14 9 -30 0 -22 6 -33
23 -40 12 -5 36 -18 52 -29 23 -17 39 -20 72 -15 36 5 43 3 53 -16 19 -36 65
-48 179 -45 l104 3 44 -41 c25 -23 52 -58 60 -79 10 -26 21 -38 35 -38 32 0
58 19 58 43 1 17 2 19 9 7 5 -8 11 -55 14 -103 3 -49 13 -102 21 -119 11 -21
12 -29 3 -25 -7 2 -120 35 -252 73 -132 37 -241 69 -243 70 -2 1 13 25 32 53
20 28 36 56 36 61 0 18 -34 49 -72 64 -25 11 -39 25 -47 48 -12 32 -13 32 -26
13 -30 -43 -50 -56 -79 -53 -25 3 -31 9 -37 36 -9 44 -17 50 -28 21 -9 -23
-10 -23 -10 7 -1 20 -11 40 -31 59 -39 37 -41 95 -2 80 7 -3 18 -5 23 -5z
m-403 -78 c25 -25 62 -87 62 -103 0 -8 13 -29 30 -47 l30 -33 -38 7 c-49 8
-55 16 -86 106 -33 98 -33 105 2 70z m1693 -206 c4 -15 26 -45 48 -68 38 -37
41 -44 41 -94 0 -38 4 -56 14 -60 20 -8 56 13 56 32 0 32 25 6 31 -32 3 -21
13 -53 22 -71 20 -37 24 -163 6 -163 -17 0 -113 25 -350 91 -214 60 -216 61
-211 86 3 16 43 63 102 120 54 52 101 105 104 119 5 20 12 24 46 24 34 0 42 4
52 25 14 31 29 28 39 -9z m-1524 18 c-3 -3 -12 -4 -19 -1 -8 3 -5 6 6 6 11 1
17 -2 13 -5z m2017 -40 c11 -4 16 -19 16 -49 0 -30 5 -45 16 -49 25 -10 34 2
34 46 0 40 0 40 33 35 17 -3 53 -9 78 -12 l47 -7 -38 -66 c-21 -37 -63 -114
-94 -172 -124 -233 -114 -210 -89 -210 9 0 14 -2 11 -5 -3 -3 -55 4 -115 16
-126 24 -126 24 -116 127 6 52 6 53 25 32 10 -11 22 -20 27 -20 4 0 13 -11 19
-25 7 -14 23 -30 37 -37 16 -7 25 -19 25 -34 0 -34 21 -41 42 -13 19 25 21 28
63 68 30 30 39 69 30 128 -5 34 -18 57 -55 98 -58 64 -66 85 -45 125 16 31 22
34 49 24z m-1601 -93 c169 -47 605 -183 676 -211 79 -31 445 -145 571 -179 63
-16 105 -30 93 -31 -23 0 -34 -20 -11 -20 6 0 9 -2 6 -5 -9 -9 -191 33 -393
91 -200 57 -1091 354 -1062 354 26 0 20 17 -10 28 -58 21 -8 11 130 -27z
m1404 -427 c-3 -3 -12 -4 -19 -1 -8 3 -5 6 6 6 11 1 17 -2 13 -5z m-2454 -184
c4 -16 17 -47 31 -67 37 -59 54 -129 59 -245 l4 -107 -26 20 c-85 67 -127 168
-118 284 6 72 25 145 37 145 4 0 10 -13 13 -30z m857 -19 c71 -24 86 -26 88
-13 2 8 -2 18 -10 23 -33 21 23 3 252 -82 135 -50 331 -122 435 -161 237 -88
541 -189 661 -219 79 -20 90 -25 86 -42 -4 -17 -12 -18 -71 -12 l-66 6 -47
-91 -46 -90 26 -1 c19 -1 22 -3 8 -6 -26 -7 -190 14 -311 38 -153 32 -425 126
-690 239 -261 112 -411 166 -486 176 -46 6 -48 8 -54 44 -8 49 8 81 81 159 31
34 57 61 58 61 0 0 39 -13 86 -29z m269 -711 c205 -87 336 -131 547 -184 214
-54 571 -104 771 -108 l98 -2 -87 -3 c-81 -4 -107 -13 -75 -27 23 -11 -257 3
-378 19 -252 34 -528 102 -717 179 -112 45 -358 163 -358 171 0 3 5 3 10 0 6
-3 10 0 10 8 0 8 -10 19 -22 25 -13 6 -20 11 -17 11 4 1 102 -39 218 -89z"/>
</g>
</svg>
